<svg width="64" height="80" viewBox="0 0 64 80" fill="none" xmlns="http://www.w3.org/2000/svg">
<path d="M40.6629 59.8376C41.2408 59.8376 41.911 59.8741 42.6344 59.9113C43.3142 59.944 44.0631 59.9753 44.8409 59.9023L51.8676 76.1403H36.7175L33.3313 69.8833C32.5977 68.5391 30.6686 68.5391 29.9407 69.8833L26.5501 76.1403H11.4014L18.4344 59.9023C19.2314 59.9818 19.997 59.944 20.6929 59.9113C22.1384 59.8376 23.3781 59.7735 24.0836 59.9645C24.7967 60.156 25.834 60.832 27.0494 61.6117C28.2616 62.3985 29.7281 63.3397 31.6631 63.3397C33.598 63.3397 35.0698 62.3985 36.2812 61.6117C37.4934 60.8307 38.5359 60.1567 39.2433 59.9645V59.9555C39.5989 59.8639 40.0826 59.8312 40.6631 59.8376H40.6629ZM34.1885 4.96471C35.2886 5.67782 36.543 6.65034 38.2493 7.1091C39.9554 7.56657 41.5246 7.3468 42.8317 7.28466C44.133 7.21546 45.0799 7.30516 45.5689 7.58578C46.0628 7.87345 46.6106 8.64486 47.2059 9.80267C47.8017 10.9681 48.3976 12.4449 49.6463 13.6931C50.9014 14.9424 52.3694 15.5383 53.5277 16.1335C54.6919 16.7294 55.4664 17.2765 55.7548 17.7718C56.0373 18.2607 56.1212 19.2006 56.054 20.5031C55.9899 21.8101 55.7669 23.3849 56.2295 25.0905C56.6857 26.7967 57.6647 28.0462 58.3765 29.1474C59.0839 30.2436 59.4766 31.1137 59.4766 31.6776C59.4766 32.2408 59.0839 33.1025 58.3765 34.2032C57.6654 35.2975 56.6863 36.5462 56.2295 38.253C55.7714 39.9591 55.9905 41.5385 56.054 42.8405C56.1212 44.1475 56.0379 45.09 55.7548 45.5788C55.4677 46.0689 54.6925 46.6154 53.5277 47.2094C52.3693 47.8052 50.9027 48.4055 49.6463 49.6549C48.3982 50.9043 47.8024 52.3766 47.2059 53.5413C46.628 54.6735 46.0955 55.4231 45.6105 55.7203L44.9685 55.96C44.4419 56.0772 43.7288 56.108 42.8312 56.0663C41.5241 55.9971 39.9602 55.7793 38.2488 56.2368C36.5426 56.6949 35.2894 57.6675 34.188 58.3787C33.0917 59.086 32.2306 59.4852 31.6624 59.4852C31.0979 59.4852 30.2375 59.086 29.1368 58.3787C28.0425 57.6675 26.7887 56.6949 25.0818 56.2368C23.3692 55.7793 21.8007 55.9978 20.4994 56.0663C19.5422 56.1144 18.7868 56.0779 18.2511 55.9388L17.7411 55.7479C17.2561 55.4557 16.7102 54.6946 16.1202 53.5426C15.5243 52.3772 14.9285 50.9055 13.6797 49.6562C12.4297 48.4068 10.9632 47.8072 9.79834 47.2106C8.63417 46.6154 7.85962 46.0696 7.5757 45.5801C7.29508 45.0912 7.20921 44.1494 7.27264 42.8417C7.34184 41.5392 7.55968 39.967 7.10351 38.2543C6.64733 36.5481 5.66255 35.2986 4.95648 34.2045C4.24337 33.1031 3.8564 32.2426 3.8564 31.6789C3.8564 31.1157 4.24339 30.245 4.95648 29.1487C5.6619 28.0473 6.64671 26.7986 7.10351 25.0918C7.55968 23.3875 7.34248 21.8178 7.27264 20.5108C7.20857 19.2082 7.29378 18.2625 7.5757 17.7742C7.85826 17.2783 8.63414 16.7325 9.79834 16.136C10.9625 15.5407 12.4291 14.9449 13.6797 13.6955C14.9278 12.4474 15.5236 10.9706 16.1202 9.80512C16.7141 8.64673 17.2683 7.87526 17.7572 7.58822C18.246 7.3076 19.1923 7.21662 20.5007 7.2871C21.802 7.34925 23.3768 7.56902 25.0831 7.11155C26.7892 6.65344 28.0425 5.68085 29.1382 4.96715C30.2383 4.2611 31.1 3.86194 31.6638 3.86194C32.2308 3.86065 33.0925 4.25854 34.1888 4.96459L34.1885 4.96471ZM31.6623 0.00047865C29.7273 0.00047865 28.2595 0.940395 27.0485 1.72843C25.8331 2.51522 24.7959 3.19628 24.0827 3.38585C23.3773 3.57229 22.1376 3.5031 20.6921 3.42942C19.2505 3.36022 17.5021 3.27437 15.8286 4.2431C14.1538 5.21056 13.3568 6.76294 12.6975 8.04886C12.0395 9.33475 11.4699 10.4463 10.9554 10.9679C10.4326 11.4824 9.32865 12.0417 8.04142 12.6998C6.75554 13.3578 5.20945 14.1613 4.24206 15.8424C3.27333 17.5159 3.34892 19.2529 3.4226 20.7002C3.4918 22.1412 3.56676 23.379 3.37455 24.0915C3.18297 24.7988 2.50319 25.8349 1.71647 27.0522C0.934815 28.2644 0 29.7413 0 31.6756C0 33.6106 0.934782 35.0771 1.71647 36.2893C2.50326 37.506 3.18432 38.5426 3.37455 39.2565C3.56612 39.9625 3.4918 41.2004 3.4226 42.6471C3.34892 44.0874 3.27332 45.825 4.24206 47.4991C5.20824 49.1797 6.7555 49.987 8.04142 50.6417C9.32924 51.301 10.4338 51.8584 10.9554 52.38C11.4699 52.8951 12.0401 54.0055 12.6975 55.2927C13.2139 56.3018 13.8251 57.4768 14.8784 58.4027L6.69728 77.2994C6.14307 78.5693 7.07401 79.9949 8.4618 80H27.6931C28.4043 80 29.0546 79.6124 29.3891 78.9896L31.6316 74.8494L33.8798 78.9896C34.2143 79.6111 34.8691 80 35.5758 80L54.8071 79.9981C56.1981 79.9981 57.1347 78.5732 56.5767 77.2975L48.4059 58.4368C49.4849 57.5072 50.1063 56.3161 50.633 55.2903C51.2923 54.0031 51.8567 52.8928 52.3713 52.3776C52.8941 51.8561 54.0044 51.298 55.289 50.6393C56.5768 49.9852 58.117 49.1779 59.0846 47.4967C60.0533 45.8232 59.9835 44.0836 59.9105 42.6447C59.8349 41.1986 59.7612 39.9608 59.9521 39.254C60.1437 38.5409 60.8286 37.5036 61.6102 36.2869C62.397 35.0747 63.3267 33.6081 63.3267 31.6732C63.3267 29.7383 62.3976 28.2627 61.6102 27.0498C60.8285 25.8325 60.1423 24.7965 59.9521 24.0891C59.7605 23.383 59.8349 22.1387 59.9105 20.6978C59.9842 19.2517 60.0546 17.5135 59.0846 15.84C58.1184 14.1595 56.5769 13.3559 55.289 12.6974C54.0031 12.0381 52.8929 11.4801 52.3713 10.9655C51.8568 10.444 51.2923 9.33172 50.633 8.04645C49.975 6.76056 49.1779 5.20808 47.4981 4.24069C45.8233 3.27196 44.0748 3.3578 42.6339 3.42828C41.1885 3.50196 39.9487 3.57116 39.2433 3.38472C38.5359 3.19508 37.4928 2.514 36.2812 1.72729C35.069 0.941147 33.5987 0 31.6624 0L31.6623 0.00047865Z" fill="#0E62CB"/>
<path d="M41.5528 19.7953C41.0524 19.8055 40.5802 20.0125 40.2291 20.3751L20.3154 40.174C19.5338 40.9178 19.5184 42.162 20.2795 42.9284C21.0388 43.694 22.283 43.6837 23.0319 42.9072L42.9423 23.1067C44.2084 21.8843 43.3095 19.7469 41.552 19.795L41.5528 19.7953Z" fill="#EB8258"/>
<path d="M26.0203 22.0655C27.1524 23.1925 27.1582 24.9467 26.0363 26.0622C24.9138 27.186 23.1397 27.186 22.0082 26.0532C20.8761 24.9256 20.8761 23.165 21.996 22.0495C23.1179 20.9334 24.8824 20.9385 26.0202 22.0655L26.0203 22.0655ZM28.7536 19.3431C26.1478 16.7496 21.8685 16.7386 19.2653 19.3271C16.6538 21.9206 16.6659 26.1782 19.2756 28.7736C21.8814 31.3671 26.1644 31.3781 28.774 28.7826C31.3798 26.1942 31.363 21.9367 28.758 19.3424H28.7535L28.7536 19.3431Z" fill="#EB8258"/>
<path d="M41.2617 37.2242C42.3938 38.3519 42.3938 40.1157 41.272 41.233C40.1514 42.3498 38.3818 42.3498 37.2497 41.2228C36.1118 40.0958 36.1118 38.3313 37.2337 37.2158C38.36 36.0971 40.1296 36.0971 41.2618 37.2241L41.2617 37.2242ZM43.9989 34.5082C41.3893 31.9147 37.1063 31.9038 34.5005 34.4993C31.8947 37.0877 31.9011 41.3504 34.5107 43.9394C37.1165 46.5329 41.406 46.5439 44.0111 43.9554C46.6149 41.3613 46.6046 37.0974 43.9989 34.5082L43.9989 34.5082Z" fill="#EB8258"/>
</svg>