<svg width="87" height="80" viewBox="0 0 87 80" fill="none" xmlns="http://www.w3.org/2000/svg">
<path d="M41.3675 48.9358C41.3675 49.7573 41.0411 50.5456 40.4603 51.1265C39.8794 51.7074 39.0917 52.0338 38.2695 52.0338H3.09792C1.99081 52.0338 0.968114 51.4432 0.414906 50.4848C-0.138302 49.5263 -0.138302 48.3452 0.414906 47.3868C0.968114 46.4284 1.99085 45.8378 3.09792 45.8378H38.2695C39.0917 45.8378 39.8794 46.1642 40.4603 46.7451C41.0411 47.326 41.3675 48.1143 41.3675 48.9358ZM38.2695 58.2297H12.3918C11.2847 58.2297 10.262 58.8202 9.7088 59.7787C9.15559 60.7371 9.15559 61.9182 9.7088 62.8766C10.262 63.8351 11.2847 64.4256 12.3918 64.4256H38.2695C39.3767 64.4256 40.3994 63.8351 40.9526 62.8766C41.5065 61.9182 41.5065 60.7371 40.9526 59.7787C40.3994 58.8202 39.3766 58.2297 38.2695 58.2297ZM38.2695 70.6216H21.6864C20.5793 70.6216 19.5566 71.2121 19.0034 72.1705C18.4502 73.129 18.4502 74.3101 19.0034 75.2685C19.5566 76.2269 20.5793 76.8175 21.6864 76.8175H38.2695C39.3767 76.8175 40.3994 76.2269 40.9526 75.2685C41.5065 74.3101 41.5065 73.129 40.9526 72.1705C40.3994 71.2121 39.3766 70.6216 38.2695 70.6216ZM54.6888 48.1109L67.1491 35.6664C67.9091 34.8795 68.1975 33.7503 67.9084 32.695C67.6194 31.6398 66.7951 30.8155 65.7398 30.5265C64.6846 30.2374 63.5553 30.5258 62.7684 31.2857L50.315 43.7211C49.7168 44.2986 49.3766 45.0917 49.369 45.9223C49.3621 46.7535 49.6885 47.5529 50.2762 48.1399C50.864 48.7277 51.6627 49.0548 52.4939 49.0472C53.3251 49.0403 54.1182 48.6993 54.695 48.1019L54.6888 48.1109ZM55.5967 11.9762V6.19593H58.5274C59.6345 6.19593 60.6572 5.60539 61.2104 4.64695C61.7636 3.68851 61.7636 2.5074 61.2104 1.54898C60.6572 0.590543 59.6345 0 58.5274 0H46.4765C45.3694 0 44.3467 0.590543 43.7935 1.54898C43.2403 2.50742 43.2403 3.68852 43.7935 4.64695C44.3467 5.60539 45.3694 6.19593 46.4765 6.19593H49.4072V11.97C42.2286 12.6048 35.438 15.5058 30.0174 20.2543L25.9465 16.1834C25.1637 15.3999 24.0228 15.0936 22.953 15.3792C21.8832 15.6648 21.0472 16.5001 20.7595 17.5692C20.4725 18.6389 20.7775 19.7806 21.5596 20.5641L25.7604 24.7616C23.2011 27.9978 21.2498 31.6718 20.0015 35.6045C19.7056 36.6493 19.978 37.7723 20.72 38.5649C21.4613 39.3574 22.5636 39.7045 23.6257 39.4791C24.6872 39.2536 25.5537 38.4888 25.909 37.4633C27.6848 31.8108 31.2205 26.8742 36.001 23.3737C40.7814 19.8739 46.5555 17.9937 52.4804 18.0082H52.5301C62.4969 18.0117 71.7039 23.3314 76.6854 31.965C81.6657 40.5979 81.6622 51.2326 76.6757 59.8626C71.69 68.4926 62.4784 73.807 52.5116 73.8034C51.9722 73.8034 51.4301 73.7758 50.805 73.7447C49.9904 73.7156 49.1979 74.0088 48.5983 74.56C47.9988 75.1118 47.6406 75.8773 47.6012 76.6905C47.5707 77.5161 47.8674 78.3204 48.4268 78.9283C48.9863 79.5361 49.7629 79.8985 50.5878 79.9372C51.2288 79.9683 51.8733 79.9994 52.5116 79.9994C61.3158 80.0513 69.7985 76.694 76.1818 70.6301C82.5657 64.5669 86.3546 56.2674 86.755 47.4715C87.1555 38.6756 84.1363 30.0677 78.3303 23.449C72.5244 16.8298 64.3819 12.7153 55.609 11.9672L55.5967 11.9762Z" fill="#0E62CB"/>
<rect y="44.8" width="41.6" height="8" rx="4" fill="#EB8258"/>
<rect x="8" y="57.6001" width="33.6" height="8" rx="4" fill="#EB8258"/>
<rect x="14.4004" y="70.3999" width="27.2" height="8" rx="4" fill="#EB8258"/>
</svg>