<svg width="81" height="80" viewBox="0 0 81 80" fill="none" xmlns="http://www.w3.org/2000/svg">
<path d="M30.5081 40.9257C31.6354 40.9257 32.5496 40.0115 32.5496 38.8842C32.5496 37.7563 31.6354 36.8427 30.5081 36.8427C27.1587 36.8427 23.9461 38.1727 21.577 40.5406C19.208 42.9085 17.8768 46.1206 17.875 49.4699C17.8739 52.8193 19.2022 56.0325 21.5696 58.4022C23.9363 60.7724 27.1479 62.1053 30.4973 62.1081C33.8467 62.1109 37.0605 60.7837 39.4313 58.4175C41.8027 56.0518 43.1367 52.8409 43.1412 49.4915C43.1412 48.3642 42.2269 47.45 41.0997 47.45C39.9718 47.45 39.0581 48.3642 39.0581 49.4915C39.0581 51.7643 38.1547 53.9442 36.5472 55.5506C34.9392 57.1576 32.7592 58.0592 30.4865 58.058C28.2137 58.0563 26.0344 57.1518 24.4286 55.5431C22.8234 53.9346 21.9228 51.7535 21.9257 49.4807C21.9285 47.2079 22.8342 45.0292 24.444 43.4245C26.0538 41.8199 28.2354 40.921 30.5082 40.9256L30.5081 40.9257Z" fill="#EB8258"/>
<path d="M4.40929 56.5313L7.43906 57.0622C7.82014 58.2254 8.29007 59.3583 8.84317 60.4508L7.07959 62.9663C6.3613 63.9882 6.02692 65.2311 6.13629 66.4757C6.24509 67.7203 6.79022 68.8868 7.67545 69.768L10.2319 72.3245C11.1131 73.2097 12.2797 73.7548 13.5243 73.8636C14.7689 73.973 16.0119 73.6386 17.0336 72.9203L19.5485 71.1562L19.5491 71.1567C20.6416 71.7098 21.7746 72.1792 22.9377 72.5608L23.4686 75.5906C23.6794 76.8256 24.3202 77.9465 25.2789 78.7537C26.237 79.5608 27.4503 80.0028 28.7034 80H32.3211H32.3205C33.5754 80.0046 34.7905 79.5637 35.7503 78.7565C36.7107 77.9488 37.3526 76.8273 37.5634 75.5906L38.0943 72.5608C39.2581 72.1791 40.391 71.7098 41.483 71.1567L43.9978 72.9208L43.9984 72.9203C45.0209 73.6386 46.2638 73.9729 47.5084 73.8636C48.753 73.7548 49.919 73.2096 50.8007 72.3244L53.3566 69.7686V69.768C54.2418 68.8868 54.7869 67.7202 54.8963 66.4756C55.0051 65.231 54.6713 63.988 53.953 62.9662L52.1889 60.4514V60.4508C52.742 59.3583 53.2119 58.2252 53.5935 57.0622L56.6233 56.5313H56.6227C57.1736 56.4601 57.6714 56.1667 58.0001 55.7196C58.3293 55.2724 58.4615 54.7096 58.3652 54.1628C58.2695 53.6159 57.954 53.1323 57.492 52.8236C57.0306 52.5154 56.4627 52.4089 55.921 52.5297L51.6586 53.281H51.6581C50.8731 53.4091 50.2351 53.9839 50.025 54.7506C49.5716 56.4424 48.8988 58.0675 48.0244 59.5849C47.6308 60.2696 47.669 61.1194 48.1224 61.7654L50.6293 65.3016C50.9961 65.8046 50.9369 66.5007 50.4903 66.9347L47.9344 69.4905C47.5004 69.9371 46.8043 69.9964 46.3014 69.6295L42.7571 67.1795C42.1106 66.7267 41.2607 66.6885 40.5766 67.0816C39.0643 67.9548 37.4448 68.6276 35.7588 69.0821C34.9915 69.2923 34.4173 69.9303 34.2886 70.7152L33.5373 74.9776L33.5378 74.9782C33.3943 75.5358 32.8885 75.9237 32.3126 75.9169H28.7035C28.0968 75.9186 27.5773 75.4851 27.4702 74.8882L26.7189 70.6258C26.5908 69.8402 26.016 69.2023 25.2493 68.9921C23.5581 68.5438 21.933 67.8768 20.415 67.0082C19.7303 66.6151 18.8805 66.6533 18.2345 67.1061L14.6903 69.5561C14.1873 69.923 13.4906 69.8637 13.0572 69.4171L10.5417 66.9348C10.0952 66.5007 10.0359 65.8047 10.4033 65.3017L12.8533 61.7575H12.8527C13.3153 61.1212 13.3694 60.2753 12.9917 59.585C12.1179 58.0733 11.4453 56.4532 10.9912 54.7672C10.781 53.9999 10.143 53.4257 9.3581 53.2976L5.09569 52.5462H5.09512C4.49873 52.4312 4.07152 51.9037 4.0829 51.2965V47.6874C4.0812 47.0813 4.51467 46.5612 5.11164 46.4541L9.37405 45.7028C10.1596 45.5747 10.7975 45.0005 11.0077 44.2332C11.4611 42.5443 12.1339 40.9214 13.0083 39.4068C13.4013 38.7226 13.3631 37.8727 12.9103 37.2263L10.4603 33.682V33.6826C10.0929 33.1796 10.1521 32.483 10.5993 32.049L13.0652 29.5261C13.4947 29.0738 14.1919 29.0077 14.6982 29.3706L18.2425 31.8205C18.889 32.2734 19.7389 32.3116 20.423 31.9185C21.9376 31.0441 23.5599 30.3721 25.2494 29.918C26.0161 29.7078 26.5909 29.0698 26.719 28.2849L27.4703 24.0225V24.0219C27.6093 22.9436 26.8762 21.9469 25.8053 21.7587C24.7344 21.5706 23.7052 22.2583 23.4688 23.3195L22.9379 26.3492C21.7747 26.7309 20.6418 27.2003 19.5493 27.7539L17.0344 25.9898H17.0338C16.012 25.2715 14.7691 24.9371 13.5245 25.0465C12.2798 25.1553 11.1133 25.701 10.2321 26.5862L7.67624 29.1421H7.67567C6.79219 30.0244 6.24819 31.191 6.14059 32.4356C6.03293 33.6802 6.36844 34.9232 7.08787 35.9444L8.85204 38.4593C8.29836 39.5518 7.829 40.6848 7.44735 41.8485L4.40957 42.4363C3.17178 42.6471 2.04898 43.2908 1.24127 44.2523C0.43354 45.2138 -0.00620425 46.431 6.61423e-05 47.6871V51.3049C-0.000503443 52.5563 0.442085 53.7674 1.24924 54.7243C2.0564 55.6807 3.17571 56.3209 4.40952 56.5312L4.40929 56.5313Z" fill="#0E62CB"/>
<path d="M77.0375 22.9353L74.751 21.8735V21.8741C74.5374 20.126 74.0811 18.4165 73.3958 16.7948L74.841 14.7288C75.5348 13.7411 75.8572 12.5403 75.7529 11.3378C75.6481 10.1353 75.1229 9.00798 74.2696 8.15477L71.8196 5.7048C70.9663 4.8515 69.8391 4.32632 68.6366 4.22149C67.4341 4.11725 66.2335 4.43965 65.2456 5.13345L63.2041 6.61166C61.5824 5.92584 59.8729 5.46957 58.1248 5.25596L57.0631 2.96945H57.0636C56.5544 1.8735 55.6749 0.991799 54.5801 0.480835C53.4847 -0.0301148 52.2446 -0.137776 51.0774 0.176662L47.8113 1.05844C46.6322 1.36547 45.6012 2.08204 44.9023 3.07998C44.2033 4.07792 43.8826 5.29241 43.9977 6.50508L44.2182 8.95505C42.8163 10.0185 41.5659 11.2688 40.5026 12.6706L37.9957 12.4502C36.7938 12.3437 35.593 12.6644 34.6042 13.3559C33.6153 14.0474 32.9021 15.0659 32.5901 16.2314L31.7083 19.4975H31.7077C31.3933 20.6641 31.5015 21.9047 32.0125 23.0002C32.5234 24.095 33.4046 24.9745 34.5005 25.4831L36.787 26.5449C37.0006 28.2924 37.4569 30.0025 38.1427 31.6242L36.6976 33.6902C36.0038 34.6779 35.6808 35.8787 35.7856 37.0812C35.8898 38.2836 36.4156 39.4104 37.2689 40.2636L39.7189 42.7136C40.5722 43.5675 41.6989 44.0926 42.9013 44.1975C44.1038 44.3017 45.3045 43.9787 46.2923 43.2855L48.3583 41.8404V41.8398C49.9618 42.541 51.6547 43.0161 53.3886 43.2525L54.4504 45.539C54.9631 46.6292 55.8431 47.5042 56.9363 48.01C58.0288 48.5164 59.2655 48.6217 60.428 48.3073L63.6941 47.4255C64.8613 47.1151 65.8815 46.4025 66.5741 45.4136C67.2674 44.4242 67.5892 43.2229 67.4833 42.0199L67.2628 39.513C67.9629 38.9816 68.6259 38.4028 69.2473 37.7814C69.8916 37.1571 70.492 36.4889 71.0439 35.7808L73.5507 36.0013C74.7526 36.1078 75.9534 35.7871 76.9423 35.0956C77.9311 34.404 78.6443 33.3861 78.9564 32.2201L79.8382 28.9539H79.8387C80.1611 27.7817 80.0563 26.533 79.5431 25.4303C79.0304 24.3281 78.1424 23.444 77.0373 22.9354L77.0375 22.9353ZM75.9022 27.8352L75.0204 31.1014C74.8974 31.6146 74.4195 31.9609 73.8937 31.9182L70.227 31.6323C69.4848 31.5691 68.767 31.9171 68.357 32.5391C67.2297 34.2406 65.772 35.6988 64.0701 36.826C63.448 37.2362 63.1006 37.9539 63.1638 38.6961L63.4902 42.3628C63.5329 42.888 63.1866 43.3665 62.6733 43.4895L59.4072 44.3713C58.9054 44.508 58.3779 44.2631 58.158 43.792L56.5984 40.4437H56.5979C56.2817 39.7676 55.6204 39.3193 54.8754 39.276C52.8294 39.1638 50.8282 38.6329 48.9958 37.7164C48.3282 37.3838 47.5319 37.443 46.9212 37.8714L43.9244 39.9864C43.4983 40.2843 42.919 40.233 42.5522 39.8639L40.1022 37.4139H40.1028C39.7616 37.0443 39.724 36.4866 40.0128 36.0748L42.1278 33.0535C42.5465 32.4485 42.6057 31.6647 42.2827 31.0033C41.3673 29.1817 40.8342 27.192 40.7151 25.1567C40.6718 24.4116 40.2235 23.7503 39.5474 23.4337L36.1991 21.8741C35.7281 21.6536 35.4831 21.1267 35.6193 20.6243L36.501 17.3582H36.5016C36.6247 16.8455 37.1026 16.4986 37.6283 16.5413L41.2951 16.8677V16.8683C42.0373 16.9315 42.755 16.5835 43.1651 15.9615C44.2924 14.26 45.7501 12.8018 47.452 11.6746C48.0883 11.2604 48.4409 10.5273 48.3668 9.772L48.0404 6.10528H48.0398C47.9971 5.57952 48.344 5.10161 48.8567 4.97857L52.1228 4.09679V4.09622C52.6252 3.96008 53.1521 4.20502 53.3726 4.6761L54.9322 8.02434C55.2483 8.70048 55.9102 9.14877 56.6552 9.19206C58.6905 9.31112 60.6802 9.84429 62.5018 10.7597C63.1746 11.0912 63.9749 11.0251 64.5843 10.5882L67.6056 8.47319C68.0323 8.17527 68.611 8.22711 68.9779 8.59565L71.4278 11.0456C71.7964 11.4125 71.8482 11.9912 71.5503 12.4179L69.4108 15.4147C68.9824 16.0253 68.9226 16.8211 69.2553 17.4887C70.1707 19.3109 70.7044 21.3007 70.8235 23.3359C70.8667 24.081 71.315 24.7423 71.9912 25.059L75.3394 26.6185C75.8202 26.8299 76.076 27.3596 75.9432 27.8677L75.9022 27.8352Z" fill="#0E62CB"/>
<path d="M55.7644 15.4881C53.445 15.4881 51.2206 16.4097 49.5801 18.0496C47.9402 19.6895 47.0186 21.9145 47.0186 24.2339C47.0186 26.5534 47.9402 28.7778 49.5801 30.4183C51.2206 32.0582 53.445 32.9798 55.7644 32.9798C58.0839 32.9798 60.3089 32.0582 61.9488 30.4183C63.5887 28.7778 64.5103 26.5534 64.5103 24.2339C64.5058 21.9157 63.583 19.6935 61.9441 18.0541C60.3048 16.4153 58.0827 15.4926 55.7643 15.4879L55.7644 15.4881ZM55.7644 28.9214C54.5198 28.9277 53.3242 28.439 52.4401 27.5629C51.5561 26.6868 51.0571 25.4951 51.0525 24.2505C51.0485 23.0059 51.539 21.8109 52.4168 20.9285C53.2945 20.0462 54.4873 19.5489 55.7319 19.5466C56.9765 19.5443 58.1705 20.0376 59.0517 20.9165C59.9324 21.796 60.4273 22.9894 60.4273 24.234C60.4251 25.4724 59.9341 26.6595 59.0608 27.5372C58.1876 28.415 57.0028 28.9128 55.7645 28.9214L55.7644 28.9214Z" fill="#EB8258"/>
</svg>