<svg width="74" height="83" viewBox="0 0 74 83" fill="none" xmlns="http://www.w3.org/2000/svg">
<path d="M5.01203 67.9431L17.0757 80.0068L23.1779 73.9687C23.3408 73.802 23.5738 73.7142 23.8059 73.7254C36.2872 73.3287 42.7732 72.9976 48.1718 71.2711C53.5552 69.549 57.9942 66.3842 66.3906 60.3169C67.1839 59.7461 68.3559 58.8152 69.3599 57.7942C70.04 57.1021 70.6339 56.3788 70.9487 55.7255C71.1399 55.3288 71.1905 55.0237 71.1377 54.8012C71.0863 54.5809 70.91 54.4388 70.7127 54.3435C70.2692 54.13 69.6278 54.0987 68.9811 54.2505C68.484 54.3674 67.905 54.5772 67.2308 54.9039C66.0051 55.497 64.3069 56.611 63.0939 57.3373C56.4991 61.2859 52.7261 63.4535 49.1206 64.5215C45.4385 65.6124 42.0472 65.5328 36.1832 64.9918C35.7263 64.9494 35.0588 64.8943 34.619 64.8385C33.2096 64.584 32.3619 63.8465 31.9816 62.9498C31.5768 61.9958 31.7308 60.9198 32.2748 60.0543C32.8828 59.0861 33.9931 58.3538 35.4315 58.3538H42.5942C43.5289 58.3538 44.2314 58.0316 44.6757 57.5546C44.9429 57.2674 45.1207 56.9221 45.2004 56.5589C45.28 56.1943 45.2636 55.8125 45.1431 55.4553C44.9525 54.8912 44.4971 54.3703 43.7477 54.0369C43.2983 53.8375 42.7297 53.6604 42.0213 53.5145C41.3567 53.3776 40.5679 53.2704 39.6376 53.2005C38.0325 53.1997 36.1898 53.0606 34.244 52.9132C28.1634 52.4533 21.0373 51.9153 17.5009 55.4515L5.01141 67.941L5.01203 67.9431ZM3.2439 68.5325C2.9187 68.2073 2.9187 67.6797 3.2439 67.3538L16.3226 54.2751C20.3991 50.1986 27.9369 50.7686 34.368 51.2546C36.2754 51.3989 38.0822 51.5351 39.6531 51.5351C39.7722 51.5351 39.9046 51.553 40.0244 51.5634C40.9033 51.6386 41.6757 51.7494 42.3538 51.8886C43.1768 52.0583 43.8585 52.2726 44.4181 52.5219C45.6355 53.0629 46.3879 53.95 46.719 54.9293C46.9386 55.579 46.9706 56.2636 46.8284 56.9117C46.6856 57.5614 46.37 58.1776 45.8938 58.6888C45.1526 59.4843 44.0333 60.0216 42.5949 60.0216H35.4322C34.6241 60.0216 34.0101 60.4175 33.682 60.9407C33.4341 61.3358 33.3255 61.8582 33.5123 62.2995C33.6894 62.7163 34.1426 63.0683 34.9426 63.2059C41.4659 63.8392 44.9614 64.02 48.6524 62.9269C52.1389 61.894 55.9193 59.7008 62.6443 55.6712C63.8022 54.9776 65.3716 53.9574 66.5079 53.4074C67.3005 53.0234 67.9955 52.7734 68.6035 52.6305C69.6052 52.3953 70.6522 52.4698 71.435 52.847C72.0943 53.1648 72.5885 53.6999 72.7589 54.4247C72.8943 55.0007 72.8169 55.6793 72.4456 56.4496C72.0437 57.283 71.339 58.153 70.5443 58.9612C69.4689 60.0552 68.2113 61.053 67.3599 61.6662C58.825 67.8331 54.3102 71.0518 48.6723 72.8547C43.1074 74.634 36.5817 74.9808 24.1159 75.379L17.6989 81.7282C17.3536 82.0638 16.8267 82.101 16.4807 81.7706L3.24268 68.5326L3.2439 68.5325Z" fill="#0E62CB" stroke="#0E62CB" stroke-width="2"/>
<path d="M48.0423 38.4678C47.412 38.7774 46.7311 38.9976 46.0115 39.1308C44.3193 39.4434 42.4528 39.1993 40.6363 38.2929C38.7819 37.3672 36.9809 35.7523 35.465 33.3353C32.2287 28.1768 30.3116 19.4462 31.8736 6.0966C36.5202 8.9565 40.2359 11.7829 43.1596 14.5117C46.5962 17.7183 48.8689 20.6868 50.3236 23.5006C48.938 28.8222 49.3413 33.0557 50.7612 36.1209C50.3847 36.6619 49.9538 37.133 49.476 37.5341C37.3721 26.3969 38.9989 15.641 39.0033 15.6105C39.0658 15.1559 38.748 14.7354 38.2933 14.6729C37.8386 14.6104 37.4182 14.9281 37.3557 15.3828C37.3512 15.4163 35.6292 26.8304 48.0412 38.4666L48.0423 38.4678ZM58.1213 41.9043L52.3815 48.9024L50.3366 38.9766C50.8099 38.6038 51.2482 38.1781 51.6463 37.6996C51.9924 38.2153 52.3726 38.6849 52.7804 39.1091C54.2807 40.6704 56.153 41.6095 58.1213 41.9034L58.1213 41.9043ZM52.8132 50.9959L60.211 41.9758C60.3538 41.9646 60.4967 41.9497 60.6396 41.9319C62.5729 41.687 64.4802 40.8313 66.1123 39.3444C67.7175 37.8806 69.0562 35.8036 69.883 33.0941C71.8521 26.6406 70.904 16.5094 63.5784 2.45095C63.2606 1.89505 62.5097 1.837 62.1496 2.36685C56.2684 9.62842 52.7722 15.9561 50.9855 21.2821C49.4584 18.7467 47.2967 16.0982 44.2924 13.2949C41.0776 10.2944 36.9348 7.18383 31.6913 4.04351C31.1815 3.67886 30.4589 3.98844 30.383 4.61429C28.4884 19.1197 30.5415 28.6163 34.0585 34.221C35.7492 36.9163 37.7838 38.7307 39.8943 39.7837C42.0434 40.856 44.2729 41.141 46.3106 40.7645C47.2051 40.5993 48.0527 40.3202 48.8363 39.928L52.6226 58.3089C52.7142 58.7584 53.1532 59.0486 53.6027 58.9571C54.0522 58.8656 54.3424 58.4265 54.2509 57.977L52.8124 50.9959L52.8132 50.9959ZM63.0097 15.3406C63.2739 14.9648 63.1838 14.4461 62.808 14.1819C62.4322 13.9177 61.9135 14.0078 61.6494 14.3836C61.6278 14.4141 54.2158 24.7007 58.6696 40.3002C56.9454 40.1119 55.292 39.3231 53.9792 37.9575C51.4511 35.3268 50.1721 30.5636 51.9663 23.7937C53.3735 18.4825 56.6613 11.9822 62.6846 4.35813C69.2466 17.3774 70.1018 26.6913 68.2948 32.6123C67.5626 35.0123 66.3913 36.8385 64.993 38.1132C63.716 39.2771 62.1264 40.08 60.4014 40.2876C55.8968 25.2086 62.9903 15.3693 63.0104 15.3407L63.0097 15.3406Z" fill="#EB8258" stroke="#EB8258" stroke-width="2"/>
</svg>